M48
; DRILL file {KiCad 7.0.8} date Wed 04 Oct 2023 18:10:47
; FORMAT={-:-/ absolute / inch / decimal}
; #@! TF.CreationDate,2023-10-04T18:10:47+08:00
; #@! TF.GenerationSoftware,Kicad,Pcbnew,7.0.8
; #@! TF.FileFunction,Plated,1,2,PTH
FMAT,2
INCH
; #@! TA.AperFunction,Plated,PTH,ViaDrill
T1C0.0118
; #@! TA.AperFunction,Plated,PTH,ViaDrill
T2C0.0157
; #@! TA.AperFunction,Plated,PTH,ComponentDrill
T3C0.0236
; #@! TA.AperFunction,Plated,PTH,ComponentDrill
T4C0.0295
; #@! TA.AperFunction,Plated,PTH,ComponentDrill
T5C0.0354
%
G90
G05
T1
X4.1004Y-5.1476
X4.4016Y-4.6654
X5.1181Y-4.7028
X5.5315Y-4.6654
X5.5315Y-4.7087
X5.5315Y-4.752
X5.563Y-4.6299
X5.565Y-4.685
X5.565Y-4.7264
X5.565Y-4.7835
X5.5866Y-4.6634
X5.5866Y-4.75
X5.6083Y-4.6299
X5.6083Y-4.7835
X5.6299Y-4.75
X5.6319Y-4.6634
X5.6516Y-4.6299
X5.6516Y-4.685
X5.6516Y-4.7283
X5.6516Y-4.7835
X5.685Y-4.6673
X5.685Y-4.7067
X5.685Y-4.752
X5.6988Y-4.2264
X5.7598Y-5.1969
T2
X3.9941Y-4.874
X4.2933Y-4.8642
X4.313Y-4.7343
X4.372Y-4.313
X4.75Y-5.1083
X5.065Y-4.6339
X5.1811Y-4.1417
X5.4724Y-5.1969
X5.6614Y-5.1969
X5.6909Y-4.1142
T4
X4.065Y-4.6193
X4.065Y-4.6693
X4.065Y-4.7193
T5
X4.0256Y-5.1083
X4.0256Y-5.2083
X4.0364Y-5.3287
X4.0364Y-5.4287
T3
G00X5.3957Y-5.2744
M15
G01X5.3957Y-5.3177
M16
G05
G00X5.3957Y-5.4449
M15
G01X5.3957Y-5.4764
M16
G05
G00X5.7358Y-5.2744
M15
G01X5.7358Y-5.3177
M16
G05
G00X5.7358Y-5.4449
M15
G01X5.7358Y-5.4764
M16
G05
T0
M30
