%TF.GenerationSoftware,KiCad,Pcbnew,7.0.8*%
%TF.CreationDate,2023-10-04T18:10:58+08:00*%
%TF.ProjectId,Arsnic,4172736e-6963-42e6-9b69-6361645f7063,rev?*%
%TF.SameCoordinates,Original*%
%TF.FileFunction,Paste,Top*%
%TF.FilePolarity,Positive*%
%FSLAX46Y46*%
G04 Gerber Fmt 4.6, Leading zero omitted, Abs format (unit mm)*
G04 Created by KiCad (PCBNEW 7.0.8) date 2023-10-04 18:10:58*
%MOMM*%
%LPD*%
G01*
G04 APERTURE LIST*
G04 Aperture macros list*
%AMRoundRect*
0 Rectangle with rounded corners*
0 $1 Rounding radius*
0 $2 $3 $4 $5 $6 $7 $8 $9 X,Y pos of 4 corners*
0 Add a 4 corners polygon primitive as box body*
4,1,4,$2,$3,$4,$5,$6,$7,$8,$9,$2,$3,0*
0 Add four circle primitives for the rounded corners*
1,1,$1+$1,$2,$3*
1,1,$1+$1,$4,$5*
1,1,$1+$1,$6,$7*
1,1,$1+$1,$8,$9*
0 Add four rect primitives between the rounded corners*
20,1,$1+$1,$2,$3,$4,$5,0*
20,1,$1+$1,$4,$5,$6,$7,0*
20,1,$1+$1,$6,$7,$8,$9,0*
20,1,$1+$1,$8,$9,$2,$3,0*%
G04 Aperture macros list end*
%ADD10R,1.200000X2.500000*%
%ADD11R,0.900000X1.500000*%
%ADD12RoundRect,0.155000X0.155000X-0.212500X0.155000X0.212500X-0.155000X0.212500X-0.155000X-0.212500X0*%
%ADD13RoundRect,0.237500X0.300000X0.237500X-0.300000X0.237500X-0.300000X-0.237500X0.300000X-0.237500X0*%
%ADD14RoundRect,0.155000X0.212500X0.155000X-0.212500X0.155000X-0.212500X-0.155000X0.212500X-0.155000X0*%
%ADD15RoundRect,0.048800X-0.256200X0.496200X-0.256200X-0.496200X0.256200X-0.496200X0.256200X0.496200X0*%
%ADD16RoundRect,0.250001X0.462499X0.624999X-0.462499X0.624999X-0.462499X-0.624999X0.462499X-0.624999X0*%
%ADD17R,0.700000X0.700000*%
%ADD18RoundRect,0.150000X-0.512500X-0.150000X0.512500X-0.150000X0.512500X0.150000X-0.512500X0.150000X0*%
%ADD19RoundRect,0.155000X-0.212500X-0.155000X0.212500X-0.155000X0.212500X0.155000X-0.212500X0.155000X0*%
%ADD20RoundRect,0.160000X0.160000X-0.197500X0.160000X0.197500X-0.160000X0.197500X-0.160000X-0.197500X0*%
%ADD21RoundRect,0.155000X-0.155000X0.212500X-0.155000X-0.212500X0.155000X-0.212500X0.155000X0.212500X0*%
%ADD22R,1.000000X0.700000*%
%ADD23RoundRect,0.160000X-0.160000X0.197500X-0.160000X-0.197500X0.160000X-0.197500X0.160000X0.197500X0*%
%ADD24R,0.600000X0.700000*%
%ADD25RoundRect,0.225000X0.375000X-0.225000X0.375000X0.225000X-0.375000X0.225000X-0.375000X-0.225000X0*%
%ADD26RoundRect,0.150000X0.512500X0.150000X-0.512500X0.150000X-0.512500X-0.150000X0.512500X-0.150000X0*%
%ADD27R,0.500000X0.300000*%
%ADD28R,0.600000X1.150000*%
%ADD29R,0.300000X1.150000*%
G04 APERTURE END LIST*
D10*
%TO.C,S1*%
X113150000Y-135350000D03*
X110650000Y-135350000D03*
X108150000Y-135350000D03*
%TD*%
D11*
%TO.C,D3*%
X107050000Y-105150000D03*
X103750000Y-105150000D03*
X103750000Y-110050000D03*
X107050000Y-110050000D03*
%TD*%
D12*
%TO.C,C11*%
X121550000Y-118067500D03*
X121550000Y-116932500D03*
%TD*%
D13*
%TO.C,C8*%
X148750000Y-104350000D03*
X147025000Y-104350000D03*
%TD*%
D12*
%TO.C,R11*%
X128100000Y-113535000D03*
X128100000Y-112400000D03*
%TD*%
D14*
%TO.C,C6*%
X107050000Y-102350000D03*
X105915000Y-102350000D03*
%TD*%
D15*
%TO.C,Q1*%
X113730000Y-130050000D03*
X111900000Y-130050000D03*
X112815000Y-132190000D03*
%TD*%
D16*
%TO.C,F1*%
X107187500Y-123500000D03*
X104212500Y-123500000D03*
%TD*%
D11*
%TO.C,U5*%
X148650000Y-109850000D03*
X147150000Y-109850000D03*
X145650000Y-109850000D03*
X144150000Y-109850000D03*
X142650000Y-109850000D03*
X141150000Y-109850000D03*
X139650000Y-109850000D03*
X138150000Y-109850000D03*
X136650000Y-109850000D03*
X136650000Y-127350000D03*
X138150000Y-127350000D03*
X139650000Y-127350000D03*
X141150000Y-127350000D03*
X142650000Y-127350000D03*
X144150000Y-127350000D03*
X145650000Y-127350000D03*
X147150000Y-127350000D03*
X148650000Y-127350000D03*
D17*
X143550000Y-118460000D03*
X142450000Y-118460000D03*
X141350000Y-118460000D03*
X143550000Y-119510000D03*
X142450000Y-119510000D03*
X141350000Y-119510000D03*
X143550000Y-120660000D03*
X142450000Y-120660000D03*
X141350000Y-120660000D03*
%TD*%
D14*
%TO.C,C9*%
X148767500Y-106450000D03*
X147632500Y-106450000D03*
%TD*%
D18*
%TO.C,U2*%
X120387500Y-134800000D03*
X120387500Y-135750000D03*
X120387500Y-136700000D03*
X122662500Y-136700000D03*
X122662500Y-134800000D03*
%TD*%
D19*
%TO.C,R6*%
X138965000Y-130100000D03*
X140100000Y-130100000D03*
%TD*%
D20*
%TO.C,R10*%
X109250000Y-118495000D03*
X109250000Y-117300000D03*
%TD*%
D12*
%TO.C,C10*%
X121450000Y-108967500D03*
X121450000Y-107832500D03*
%TD*%
D21*
%TO.C,R8*%
X118550000Y-101800000D03*
X118550000Y-102935000D03*
%TD*%
D12*
%TO.C,R9*%
X118550000Y-106185000D03*
X118550000Y-105050000D03*
%TD*%
D22*
%TO.C,SW1*%
X122100000Y-115750000D03*
X128100000Y-115750000D03*
X122100000Y-119450000D03*
X128100000Y-119450000D03*
%TD*%
D21*
%TO.C,C4*%
X110050000Y-131300000D03*
X110050000Y-132435000D03*
%TD*%
D23*
%TO.C,R1*%
X121775000Y-126950000D03*
X121775000Y-128145000D03*
%TD*%
D19*
%TO.C,R5*%
X105265000Y-132350000D03*
X106400000Y-132350000D03*
%TD*%
D21*
%TO.C,C1*%
X116862500Y-136100000D03*
X116862500Y-137235000D03*
%TD*%
D22*
%TO.C,D4*%
X131450000Y-138100000D03*
D24*
X133150000Y-138100000D03*
X133150000Y-136100000D03*
X131250000Y-136100000D03*
%TD*%
D12*
%TO.C,R2*%
X139650000Y-107235000D03*
X139650000Y-106100000D03*
%TD*%
D19*
%TO.C,R7*%
X143150000Y-130600000D03*
X144285000Y-130600000D03*
%TD*%
D25*
%TO.C,D1*%
X118475000Y-130300000D03*
X118475000Y-127000000D03*
%TD*%
D26*
%TO.C,U1*%
X109050000Y-129500000D03*
X109050000Y-128550000D03*
X109050000Y-127600000D03*
X106775000Y-127600000D03*
X106775000Y-129500000D03*
%TD*%
D27*
%TO.C,U3*%
X116650000Y-104517500D03*
X116650000Y-103717500D03*
X115250000Y-103717500D03*
X115250000Y-104517500D03*
%TD*%
D19*
%TO.C,R3*%
X147265000Y-130600000D03*
X148400000Y-130600000D03*
%TD*%
D21*
%TO.C,C7*%
X113000000Y-103550000D03*
X113000000Y-104685000D03*
%TD*%
%TO.C,C3*%
X102150000Y-125900000D03*
X102150000Y-127035000D03*
%TD*%
%TO.C,C2*%
X124850000Y-135750000D03*
X124850000Y-136885000D03*
%TD*%
D23*
%TO.C,R4*%
X104200000Y-125900000D03*
X104200000Y-127095000D03*
%TD*%
D19*
%TO.C,C5*%
X118465000Y-132300000D03*
X119600000Y-132300000D03*
%TD*%
D12*
%TO.C,R12*%
X128100000Y-122385000D03*
X128100000Y-121250000D03*
%TD*%
D22*
%TO.C,SW2*%
X122100000Y-106650000D03*
X128100000Y-106650000D03*
X122100000Y-110350000D03*
X128100000Y-110350000D03*
%TD*%
D28*
%TO.C,J1*%
X138170000Y-133945000D03*
X138970000Y-133945000D03*
D29*
X140120000Y-133945000D03*
X141120000Y-133945000D03*
X141620000Y-133945000D03*
X142620000Y-133945000D03*
D28*
X144570000Y-133945000D03*
X143770000Y-133945000D03*
D29*
X143120000Y-133945000D03*
X142120000Y-133945000D03*
X140620000Y-133945000D03*
X139620000Y-133945000D03*
%TD*%
M02*
