%TF.GenerationSoftware,KiCad,Pcbnew,7.0.8*%
%TF.CreationDate,2023-10-04T18:10:58+08:00*%
%TF.ProjectId,Arsnic,4172736e-6963-42e6-9b69-6361645f7063,rev?*%
%TF.SameCoordinates,Original*%
%TF.FileFunction,Legend,Bot*%
%TF.FilePolarity,Positive*%
%FSLAX46Y46*%
G04 Gerber Fmt 4.6, Leading zero omitted, Abs format (unit mm)*
G04 Created by KiCad (PCBNEW 7.0.8) date 2023-10-04 18:10:58*
%MOMM*%
%LPD*%
G01*
G04 APERTURE LIST*
%ADD10C,0.152400*%
G04 APERTURE END LIST*
D10*
X105156213Y-135482965D02*
X104536937Y-135482965D01*
X104846575Y-135792603D02*
X104846575Y-135173327D01*
X104906213Y-129632965D02*
X104286937Y-129632965D01*
X104596575Y-129942603D02*
X104596575Y-129323327D01*
X118194917Y-114310375D02*
X117807870Y-114310375D01*
X118272327Y-114542603D02*
X118001394Y-113729803D01*
X118001394Y-113729803D02*
X117730460Y-114542603D01*
X117459527Y-114542603D02*
X117459527Y-114000737D01*
X117459527Y-114155556D02*
X117420822Y-114078146D01*
X117420822Y-114078146D02*
X117382117Y-114039441D01*
X117382117Y-114039441D02*
X117304708Y-114000737D01*
X117304708Y-114000737D02*
X117227298Y-114000737D01*
X116995069Y-114503899D02*
X116917660Y-114542603D01*
X116917660Y-114542603D02*
X116762841Y-114542603D01*
X116762841Y-114542603D02*
X116685431Y-114503899D01*
X116685431Y-114503899D02*
X116646727Y-114426489D01*
X116646727Y-114426489D02*
X116646727Y-114387784D01*
X116646727Y-114387784D02*
X116685431Y-114310375D01*
X116685431Y-114310375D02*
X116762841Y-114271670D01*
X116762841Y-114271670D02*
X116878955Y-114271670D01*
X116878955Y-114271670D02*
X116956365Y-114232965D01*
X116956365Y-114232965D02*
X116995069Y-114155556D01*
X116995069Y-114155556D02*
X116995069Y-114116851D01*
X116995069Y-114116851D02*
X116956365Y-114039441D01*
X116956365Y-114039441D02*
X116878955Y-114000737D01*
X116878955Y-114000737D02*
X116762841Y-114000737D01*
X116762841Y-114000737D02*
X116685431Y-114039441D01*
X116298384Y-114000737D02*
X116298384Y-114542603D01*
X116298384Y-114078146D02*
X116259679Y-114039441D01*
X116259679Y-114039441D02*
X116182269Y-114000737D01*
X116182269Y-114000737D02*
X116066155Y-114000737D01*
X116066155Y-114000737D02*
X115988746Y-114039441D01*
X115988746Y-114039441D02*
X115950041Y-114116851D01*
X115950041Y-114116851D02*
X115950041Y-114542603D01*
X115562994Y-114542603D02*
X115562994Y-114000737D01*
X115562994Y-113729803D02*
X115601698Y-113768508D01*
X115601698Y-113768508D02*
X115562994Y-113807213D01*
X115562994Y-113807213D02*
X115524289Y-113768508D01*
X115524289Y-113768508D02*
X115562994Y-113729803D01*
X115562994Y-113729803D02*
X115562994Y-113807213D01*
X114827603Y-114503899D02*
X114905012Y-114542603D01*
X114905012Y-114542603D02*
X115059831Y-114542603D01*
X115059831Y-114542603D02*
X115137241Y-114503899D01*
X115137241Y-114503899D02*
X115175946Y-114465194D01*
X115175946Y-114465194D02*
X115214650Y-114387784D01*
X115214650Y-114387784D02*
X115214650Y-114155556D01*
X115214650Y-114155556D02*
X115175946Y-114078146D01*
X115175946Y-114078146D02*
X115137241Y-114039441D01*
X115137241Y-114039441D02*
X115059831Y-114000737D01*
X115059831Y-114000737D02*
X114905012Y-114000737D01*
X114905012Y-114000737D02*
X114827603Y-114039441D01*
X113859984Y-114542603D02*
X113859984Y-113729803D01*
X113859984Y-113729803D02*
X113550346Y-113729803D01*
X113550346Y-113729803D02*
X113472936Y-113768508D01*
X113472936Y-113768508D02*
X113434231Y-113807213D01*
X113434231Y-113807213D02*
X113395527Y-113884622D01*
X113395527Y-113884622D02*
X113395527Y-114000737D01*
X113395527Y-114000737D02*
X113434231Y-114078146D01*
X113434231Y-114078146D02*
X113472936Y-114116851D01*
X113472936Y-114116851D02*
X113550346Y-114155556D01*
X113550346Y-114155556D02*
X113859984Y-114155556D01*
X112582727Y-114465194D02*
X112621431Y-114503899D01*
X112621431Y-114503899D02*
X112737546Y-114542603D01*
X112737546Y-114542603D02*
X112814955Y-114542603D01*
X112814955Y-114542603D02*
X112931069Y-114503899D01*
X112931069Y-114503899D02*
X113008479Y-114426489D01*
X113008479Y-114426489D02*
X113047184Y-114349079D01*
X113047184Y-114349079D02*
X113085888Y-114194260D01*
X113085888Y-114194260D02*
X113085888Y-114078146D01*
X113085888Y-114078146D02*
X113047184Y-113923327D01*
X113047184Y-113923327D02*
X113008479Y-113845918D01*
X113008479Y-113845918D02*
X112931069Y-113768508D01*
X112931069Y-113768508D02*
X112814955Y-113729803D01*
X112814955Y-113729803D02*
X112737546Y-113729803D01*
X112737546Y-113729803D02*
X112621431Y-113768508D01*
X112621431Y-113768508D02*
X112582727Y-113807213D01*
X111963450Y-114116851D02*
X111847336Y-114155556D01*
X111847336Y-114155556D02*
X111808631Y-114194260D01*
X111808631Y-114194260D02*
X111769927Y-114271670D01*
X111769927Y-114271670D02*
X111769927Y-114387784D01*
X111769927Y-114387784D02*
X111808631Y-114465194D01*
X111808631Y-114465194D02*
X111847336Y-114503899D01*
X111847336Y-114503899D02*
X111924746Y-114542603D01*
X111924746Y-114542603D02*
X112234384Y-114542603D01*
X112234384Y-114542603D02*
X112234384Y-113729803D01*
X112234384Y-113729803D02*
X111963450Y-113729803D01*
X111963450Y-113729803D02*
X111886041Y-113768508D01*
X111886041Y-113768508D02*
X111847336Y-113807213D01*
X111847336Y-113807213D02*
X111808631Y-113884622D01*
X111808631Y-113884622D02*
X111808631Y-113962032D01*
X111808631Y-113962032D02*
X111847336Y-114039441D01*
X111847336Y-114039441D02*
X111886041Y-114078146D01*
X111886041Y-114078146D02*
X111963450Y-114116851D01*
X111963450Y-114116851D02*
X112234384Y-114116851D01*
X110918422Y-113729803D02*
X110647489Y-114542603D01*
X110647489Y-114542603D02*
X110376555Y-113729803D01*
X109679869Y-114542603D02*
X110144326Y-114542603D01*
X109912098Y-114542603D02*
X109912098Y-113729803D01*
X109912098Y-113729803D02*
X109989507Y-113845918D01*
X109989507Y-113845918D02*
X110066917Y-113923327D01*
X110066917Y-113923327D02*
X110144326Y-113962032D01*
M02*
