%TF.GenerationSoftware,KiCad,Pcbnew,7.0.8*%
%TF.CreationDate,2023-10-04T18:10:58+08:00*%
%TF.ProjectId,Arsnic,4172736e-6963-42e6-9b69-6361645f7063,rev?*%
%TF.SameCoordinates,Original*%
%TF.FileFunction,Legend,Top*%
%TF.FilePolarity,Positive*%
%FSLAX46Y46*%
G04 Gerber Fmt 4.6, Leading zero omitted, Abs format (unit mm)*
G04 Created by KiCad (PCBNEW 7.0.8) date 2023-10-04 18:10:58*
%MOMM*%
%LPD*%
G01*
G04 APERTURE LIST*
%ADD10C,0.150000*%
%ADD11C,0.127000*%
%ADD12C,0.120000*%
%ADD13C,0.200000*%
%ADD14C,0.100000*%
G04 APERTURE END LIST*
D10*
X109887537Y-138507504D02*
X110030499Y-138555157D01*
X110030499Y-138555157D02*
X110268768Y-138555157D01*
X110268768Y-138555157D02*
X110364076Y-138507504D01*
X110364076Y-138507504D02*
X110411730Y-138459850D01*
X110411730Y-138459850D02*
X110459384Y-138364542D01*
X110459384Y-138364542D02*
X110459384Y-138269234D01*
X110459384Y-138269234D02*
X110411730Y-138173926D01*
X110411730Y-138173926D02*
X110364076Y-138126272D01*
X110364076Y-138126272D02*
X110268768Y-138078618D01*
X110268768Y-138078618D02*
X110078153Y-138030964D01*
X110078153Y-138030964D02*
X109982845Y-137983311D01*
X109982845Y-137983311D02*
X109935191Y-137935657D01*
X109935191Y-137935657D02*
X109887537Y-137840349D01*
X109887537Y-137840349D02*
X109887537Y-137745041D01*
X109887537Y-137745041D02*
X109935191Y-137649733D01*
X109935191Y-137649733D02*
X109982845Y-137602079D01*
X109982845Y-137602079D02*
X110078153Y-137554425D01*
X110078153Y-137554425D02*
X110316422Y-137554425D01*
X110316422Y-137554425D02*
X110459384Y-137602079D01*
X111412462Y-138555157D02*
X110840615Y-138555157D01*
X111126539Y-138555157D02*
X111126539Y-137554425D01*
X111126539Y-137554425D02*
X111031231Y-137697387D01*
X111031231Y-137697387D02*
X110935923Y-137792695D01*
X110935923Y-137792695D02*
X110840615Y-137840349D01*
X109354819Y-108338094D02*
X108354819Y-108338094D01*
X108354819Y-108338094D02*
X108354819Y-108099999D01*
X108354819Y-108099999D02*
X108402438Y-107957142D01*
X108402438Y-107957142D02*
X108497676Y-107861904D01*
X108497676Y-107861904D02*
X108592914Y-107814285D01*
X108592914Y-107814285D02*
X108783390Y-107766666D01*
X108783390Y-107766666D02*
X108926247Y-107766666D01*
X108926247Y-107766666D02*
X109116723Y-107814285D01*
X109116723Y-107814285D02*
X109211961Y-107861904D01*
X109211961Y-107861904D02*
X109307200Y-107957142D01*
X109307200Y-107957142D02*
X109354819Y-108099999D01*
X109354819Y-108099999D02*
X109354819Y-108338094D01*
X108354819Y-107433332D02*
X108354819Y-106814285D01*
X108354819Y-106814285D02*
X108735771Y-107147618D01*
X108735771Y-107147618D02*
X108735771Y-107004761D01*
X108735771Y-107004761D02*
X108783390Y-106909523D01*
X108783390Y-106909523D02*
X108831009Y-106861904D01*
X108831009Y-106861904D02*
X108926247Y-106814285D01*
X108926247Y-106814285D02*
X109164342Y-106814285D01*
X109164342Y-106814285D02*
X109259580Y-106861904D01*
X109259580Y-106861904D02*
X109307200Y-106909523D01*
X109307200Y-106909523D02*
X109354819Y-107004761D01*
X109354819Y-107004761D02*
X109354819Y-107290475D01*
X109354819Y-107290475D02*
X109307200Y-107385713D01*
X109307200Y-107385713D02*
X109259580Y-107433332D01*
X105754819Y-107314285D02*
X105754819Y-107885713D01*
X105754819Y-107599999D02*
X104754819Y-107599999D01*
X104754819Y-107599999D02*
X104897676Y-107695237D01*
X104897676Y-107695237D02*
X104992914Y-107790475D01*
X104992914Y-107790475D02*
X105040533Y-107885713D01*
X120749580Y-118142857D02*
X120797200Y-118190476D01*
X120797200Y-118190476D02*
X120844819Y-118333333D01*
X120844819Y-118333333D02*
X120844819Y-118428571D01*
X120844819Y-118428571D02*
X120797200Y-118571428D01*
X120797200Y-118571428D02*
X120701961Y-118666666D01*
X120701961Y-118666666D02*
X120606723Y-118714285D01*
X120606723Y-118714285D02*
X120416247Y-118761904D01*
X120416247Y-118761904D02*
X120273390Y-118761904D01*
X120273390Y-118761904D02*
X120082914Y-118714285D01*
X120082914Y-118714285D02*
X119987676Y-118666666D01*
X119987676Y-118666666D02*
X119892438Y-118571428D01*
X119892438Y-118571428D02*
X119844819Y-118428571D01*
X119844819Y-118428571D02*
X119844819Y-118333333D01*
X119844819Y-118333333D02*
X119892438Y-118190476D01*
X119892438Y-118190476D02*
X119940057Y-118142857D01*
X120844819Y-117190476D02*
X120844819Y-117761904D01*
X120844819Y-117476190D02*
X119844819Y-117476190D01*
X119844819Y-117476190D02*
X119987676Y-117571428D01*
X119987676Y-117571428D02*
X120082914Y-117666666D01*
X120082914Y-117666666D02*
X120130533Y-117761904D01*
X120844819Y-116238095D02*
X120844819Y-116809523D01*
X120844819Y-116523809D02*
X119844819Y-116523809D01*
X119844819Y-116523809D02*
X119987676Y-116619047D01*
X119987676Y-116619047D02*
X120082914Y-116714285D01*
X120082914Y-116714285D02*
X120130533Y-116809523D01*
X147683333Y-102859580D02*
X147635714Y-102907200D01*
X147635714Y-102907200D02*
X147492857Y-102954819D01*
X147492857Y-102954819D02*
X147397619Y-102954819D01*
X147397619Y-102954819D02*
X147254762Y-102907200D01*
X147254762Y-102907200D02*
X147159524Y-102811961D01*
X147159524Y-102811961D02*
X147111905Y-102716723D01*
X147111905Y-102716723D02*
X147064286Y-102526247D01*
X147064286Y-102526247D02*
X147064286Y-102383390D01*
X147064286Y-102383390D02*
X147111905Y-102192914D01*
X147111905Y-102192914D02*
X147159524Y-102097676D01*
X147159524Y-102097676D02*
X147254762Y-102002438D01*
X147254762Y-102002438D02*
X147397619Y-101954819D01*
X147397619Y-101954819D02*
X147492857Y-101954819D01*
X147492857Y-101954819D02*
X147635714Y-102002438D01*
X147635714Y-102002438D02*
X147683333Y-102050057D01*
X148254762Y-102383390D02*
X148159524Y-102335771D01*
X148159524Y-102335771D02*
X148111905Y-102288152D01*
X148111905Y-102288152D02*
X148064286Y-102192914D01*
X148064286Y-102192914D02*
X148064286Y-102145295D01*
X148064286Y-102145295D02*
X148111905Y-102050057D01*
X148111905Y-102050057D02*
X148159524Y-102002438D01*
X148159524Y-102002438D02*
X148254762Y-101954819D01*
X148254762Y-101954819D02*
X148445238Y-101954819D01*
X148445238Y-101954819D02*
X148540476Y-102002438D01*
X148540476Y-102002438D02*
X148588095Y-102050057D01*
X148588095Y-102050057D02*
X148635714Y-102145295D01*
X148635714Y-102145295D02*
X148635714Y-102192914D01*
X148635714Y-102192914D02*
X148588095Y-102288152D01*
X148588095Y-102288152D02*
X148540476Y-102335771D01*
X148540476Y-102335771D02*
X148445238Y-102383390D01*
X148445238Y-102383390D02*
X148254762Y-102383390D01*
X148254762Y-102383390D02*
X148159524Y-102431009D01*
X148159524Y-102431009D02*
X148111905Y-102478628D01*
X148111905Y-102478628D02*
X148064286Y-102573866D01*
X148064286Y-102573866D02*
X148064286Y-102764342D01*
X148064286Y-102764342D02*
X148111905Y-102859580D01*
X148111905Y-102859580D02*
X148159524Y-102907200D01*
X148159524Y-102907200D02*
X148254762Y-102954819D01*
X148254762Y-102954819D02*
X148445238Y-102954819D01*
X148445238Y-102954819D02*
X148540476Y-102907200D01*
X148540476Y-102907200D02*
X148588095Y-102859580D01*
X148588095Y-102859580D02*
X148635714Y-102764342D01*
X148635714Y-102764342D02*
X148635714Y-102573866D01*
X148635714Y-102573866D02*
X148588095Y-102478628D01*
X148588095Y-102478628D02*
X148540476Y-102431009D01*
X148540476Y-102431009D02*
X148445238Y-102383390D01*
X127394819Y-113610357D02*
X126918628Y-113943690D01*
X127394819Y-114181785D02*
X126394819Y-114181785D01*
X126394819Y-114181785D02*
X126394819Y-113800833D01*
X126394819Y-113800833D02*
X126442438Y-113705595D01*
X126442438Y-113705595D02*
X126490057Y-113657976D01*
X126490057Y-113657976D02*
X126585295Y-113610357D01*
X126585295Y-113610357D02*
X126728152Y-113610357D01*
X126728152Y-113610357D02*
X126823390Y-113657976D01*
X126823390Y-113657976D02*
X126871009Y-113705595D01*
X126871009Y-113705595D02*
X126918628Y-113800833D01*
X126918628Y-113800833D02*
X126918628Y-114181785D01*
X127394819Y-112657976D02*
X127394819Y-113229404D01*
X127394819Y-112943690D02*
X126394819Y-112943690D01*
X126394819Y-112943690D02*
X126537676Y-113038928D01*
X126537676Y-113038928D02*
X126632914Y-113134166D01*
X126632914Y-113134166D02*
X126680533Y-113229404D01*
X127394819Y-111705595D02*
X127394819Y-112277023D01*
X127394819Y-111991309D02*
X126394819Y-111991309D01*
X126394819Y-111991309D02*
X126537676Y-112086547D01*
X126537676Y-112086547D02*
X126632914Y-112181785D01*
X126632914Y-112181785D02*
X126680533Y-112277023D01*
X104183333Y-102709580D02*
X104135714Y-102757200D01*
X104135714Y-102757200D02*
X103992857Y-102804819D01*
X103992857Y-102804819D02*
X103897619Y-102804819D01*
X103897619Y-102804819D02*
X103754762Y-102757200D01*
X103754762Y-102757200D02*
X103659524Y-102661961D01*
X103659524Y-102661961D02*
X103611905Y-102566723D01*
X103611905Y-102566723D02*
X103564286Y-102376247D01*
X103564286Y-102376247D02*
X103564286Y-102233390D01*
X103564286Y-102233390D02*
X103611905Y-102042914D01*
X103611905Y-102042914D02*
X103659524Y-101947676D01*
X103659524Y-101947676D02*
X103754762Y-101852438D01*
X103754762Y-101852438D02*
X103897619Y-101804819D01*
X103897619Y-101804819D02*
X103992857Y-101804819D01*
X103992857Y-101804819D02*
X104135714Y-101852438D01*
X104135714Y-101852438D02*
X104183333Y-101900057D01*
X105040476Y-101804819D02*
X104850000Y-101804819D01*
X104850000Y-101804819D02*
X104754762Y-101852438D01*
X104754762Y-101852438D02*
X104707143Y-101900057D01*
X104707143Y-101900057D02*
X104611905Y-102042914D01*
X104611905Y-102042914D02*
X104564286Y-102233390D01*
X104564286Y-102233390D02*
X104564286Y-102614342D01*
X104564286Y-102614342D02*
X104611905Y-102709580D01*
X104611905Y-102709580D02*
X104659524Y-102757200D01*
X104659524Y-102757200D02*
X104754762Y-102804819D01*
X104754762Y-102804819D02*
X104945238Y-102804819D01*
X104945238Y-102804819D02*
X105040476Y-102757200D01*
X105040476Y-102757200D02*
X105088095Y-102709580D01*
X105088095Y-102709580D02*
X105135714Y-102614342D01*
X105135714Y-102614342D02*
X105135714Y-102376247D01*
X105135714Y-102376247D02*
X105088095Y-102281009D01*
X105088095Y-102281009D02*
X105040476Y-102233390D01*
X105040476Y-102233390D02*
X104945238Y-102185771D01*
X104945238Y-102185771D02*
X104754762Y-102185771D01*
X104754762Y-102185771D02*
X104659524Y-102233390D01*
X104659524Y-102233390D02*
X104611905Y-102281009D01*
X104611905Y-102281009D02*
X104564286Y-102376247D01*
X112123809Y-129038485D02*
X112047619Y-129000390D01*
X112047619Y-129000390D02*
X111971428Y-128924200D01*
X111971428Y-128924200D02*
X111857142Y-128809914D01*
X111857142Y-128809914D02*
X111780952Y-128771819D01*
X111780952Y-128771819D02*
X111704761Y-128771819D01*
X111742857Y-128962295D02*
X111666666Y-128924200D01*
X111666666Y-128924200D02*
X111590476Y-128848009D01*
X111590476Y-128848009D02*
X111552380Y-128695628D01*
X111552380Y-128695628D02*
X111552380Y-128428961D01*
X111552380Y-128428961D02*
X111590476Y-128276580D01*
X111590476Y-128276580D02*
X111666666Y-128200390D01*
X111666666Y-128200390D02*
X111742857Y-128162295D01*
X111742857Y-128162295D02*
X111895238Y-128162295D01*
X111895238Y-128162295D02*
X111971428Y-128200390D01*
X111971428Y-128200390D02*
X112047619Y-128276580D01*
X112047619Y-128276580D02*
X112085714Y-128428961D01*
X112085714Y-128428961D02*
X112085714Y-128695628D01*
X112085714Y-128695628D02*
X112047619Y-128848009D01*
X112047619Y-128848009D02*
X111971428Y-128924200D01*
X111971428Y-128924200D02*
X111895238Y-128962295D01*
X111895238Y-128962295D02*
X111742857Y-128962295D01*
X112847618Y-128962295D02*
X112390475Y-128962295D01*
X112619047Y-128962295D02*
X112619047Y-128162295D01*
X112619047Y-128162295D02*
X112542856Y-128276580D01*
X112542856Y-128276580D02*
X112466666Y-128352771D01*
X112466666Y-128352771D02*
X112390475Y-128390866D01*
X105366666Y-121681009D02*
X105033333Y-121681009D01*
X105033333Y-122204819D02*
X105033333Y-121204819D01*
X105033333Y-121204819D02*
X105509523Y-121204819D01*
X106414285Y-122204819D02*
X105842857Y-122204819D01*
X106128571Y-122204819D02*
X106128571Y-121204819D01*
X106128571Y-121204819D02*
X106033333Y-121347676D01*
X106033333Y-121347676D02*
X105938095Y-121442914D01*
X105938095Y-121442914D02*
X105842857Y-121490533D01*
X142204819Y-115511904D02*
X143014342Y-115511904D01*
X143014342Y-115511904D02*
X143109580Y-115464285D01*
X143109580Y-115464285D02*
X143157200Y-115416666D01*
X143157200Y-115416666D02*
X143204819Y-115321428D01*
X143204819Y-115321428D02*
X143204819Y-115130952D01*
X143204819Y-115130952D02*
X143157200Y-115035714D01*
X143157200Y-115035714D02*
X143109580Y-114988095D01*
X143109580Y-114988095D02*
X143014342Y-114940476D01*
X143014342Y-114940476D02*
X142204819Y-114940476D01*
X142204819Y-113988095D02*
X142204819Y-114464285D01*
X142204819Y-114464285D02*
X142681009Y-114511904D01*
X142681009Y-114511904D02*
X142633390Y-114464285D01*
X142633390Y-114464285D02*
X142585771Y-114369047D01*
X142585771Y-114369047D02*
X142585771Y-114130952D01*
X142585771Y-114130952D02*
X142633390Y-114035714D01*
X142633390Y-114035714D02*
X142681009Y-113988095D01*
X142681009Y-113988095D02*
X142776247Y-113940476D01*
X142776247Y-113940476D02*
X143014342Y-113940476D01*
X143014342Y-113940476D02*
X143109580Y-113988095D01*
X143109580Y-113988095D02*
X143157200Y-114035714D01*
X143157200Y-114035714D02*
X143204819Y-114130952D01*
X143204819Y-114130952D02*
X143204819Y-114369047D01*
X143204819Y-114369047D02*
X143157200Y-114464285D01*
X143157200Y-114464285D02*
X143109580Y-114511904D01*
X153319104Y-123361905D02*
X153319104Y-122885715D01*
X153604819Y-123457143D02*
X152604819Y-123123810D01*
X152604819Y-123123810D02*
X153604819Y-122790477D01*
X152938152Y-122457143D02*
X153604819Y-122457143D01*
X153033390Y-122457143D02*
X152985771Y-122409524D01*
X152985771Y-122409524D02*
X152938152Y-122314286D01*
X152938152Y-122314286D02*
X152938152Y-122171429D01*
X152938152Y-122171429D02*
X152985771Y-122076191D01*
X152985771Y-122076191D02*
X153081009Y-122028572D01*
X153081009Y-122028572D02*
X153604819Y-122028572D01*
X152938152Y-121695238D02*
X152938152Y-121314286D01*
X152604819Y-121552381D02*
X153461961Y-121552381D01*
X153461961Y-121552381D02*
X153557200Y-121504762D01*
X153557200Y-121504762D02*
X153604819Y-121409524D01*
X153604819Y-121409524D02*
X153604819Y-121314286D01*
X153557200Y-120600000D02*
X153604819Y-120695238D01*
X153604819Y-120695238D02*
X153604819Y-120885714D01*
X153604819Y-120885714D02*
X153557200Y-120980952D01*
X153557200Y-120980952D02*
X153461961Y-121028571D01*
X153461961Y-121028571D02*
X153081009Y-121028571D01*
X153081009Y-121028571D02*
X152985771Y-120980952D01*
X152985771Y-120980952D02*
X152938152Y-120885714D01*
X152938152Y-120885714D02*
X152938152Y-120695238D01*
X152938152Y-120695238D02*
X152985771Y-120600000D01*
X152985771Y-120600000D02*
X153081009Y-120552381D01*
X153081009Y-120552381D02*
X153176247Y-120552381D01*
X153176247Y-120552381D02*
X153271485Y-121028571D01*
X152938152Y-120123809D02*
X153604819Y-120123809D01*
X153033390Y-120123809D02*
X152985771Y-120076190D01*
X152985771Y-120076190D02*
X152938152Y-119980952D01*
X152938152Y-119980952D02*
X152938152Y-119838095D01*
X152938152Y-119838095D02*
X152985771Y-119742857D01*
X152985771Y-119742857D02*
X153081009Y-119695238D01*
X153081009Y-119695238D02*
X153604819Y-119695238D01*
X152938152Y-119219047D02*
X153604819Y-119219047D01*
X153033390Y-119219047D02*
X152985771Y-119171428D01*
X152985771Y-119171428D02*
X152938152Y-119076190D01*
X152938152Y-119076190D02*
X152938152Y-118933333D01*
X152938152Y-118933333D02*
X152985771Y-118838095D01*
X152985771Y-118838095D02*
X153081009Y-118790476D01*
X153081009Y-118790476D02*
X153604819Y-118790476D01*
X153604819Y-117885714D02*
X153081009Y-117885714D01*
X153081009Y-117885714D02*
X152985771Y-117933333D01*
X152985771Y-117933333D02*
X152938152Y-118028571D01*
X152938152Y-118028571D02*
X152938152Y-118219047D01*
X152938152Y-118219047D02*
X152985771Y-118314285D01*
X153557200Y-117885714D02*
X153604819Y-117980952D01*
X153604819Y-117980952D02*
X153604819Y-118219047D01*
X153604819Y-118219047D02*
X153557200Y-118314285D01*
X153557200Y-118314285D02*
X153461961Y-118361904D01*
X153461961Y-118361904D02*
X153366723Y-118361904D01*
X153366723Y-118361904D02*
X153271485Y-118314285D01*
X153271485Y-118314285D02*
X153223866Y-118219047D01*
X153223866Y-118219047D02*
X153223866Y-117980952D01*
X153223866Y-117980952D02*
X153176247Y-117885714D01*
X153319104Y-116695237D02*
X153319104Y-116219047D01*
X153604819Y-116790475D02*
X152604819Y-116457142D01*
X152604819Y-116457142D02*
X153604819Y-116123809D01*
X153604819Y-115790475D02*
X152938152Y-115790475D01*
X153128628Y-115790475D02*
X153033390Y-115742856D01*
X153033390Y-115742856D02*
X152985771Y-115695237D01*
X152985771Y-115695237D02*
X152938152Y-115599999D01*
X152938152Y-115599999D02*
X152938152Y-115504761D01*
X153557200Y-114790475D02*
X153604819Y-114885713D01*
X153604819Y-114885713D02*
X153604819Y-115076189D01*
X153604819Y-115076189D02*
X153557200Y-115171427D01*
X153557200Y-115171427D02*
X153461961Y-115219046D01*
X153461961Y-115219046D02*
X153081009Y-115219046D01*
X153081009Y-115219046D02*
X152985771Y-115171427D01*
X152985771Y-115171427D02*
X152938152Y-115076189D01*
X152938152Y-115076189D02*
X152938152Y-114885713D01*
X152938152Y-114885713D02*
X152985771Y-114790475D01*
X152985771Y-114790475D02*
X153081009Y-114742856D01*
X153081009Y-114742856D02*
X153176247Y-114742856D01*
X153176247Y-114742856D02*
X153271485Y-115219046D01*
X153604819Y-113885713D02*
X153081009Y-113885713D01*
X153081009Y-113885713D02*
X152985771Y-113933332D01*
X152985771Y-113933332D02*
X152938152Y-114028570D01*
X152938152Y-114028570D02*
X152938152Y-114219046D01*
X152938152Y-114219046D02*
X152985771Y-114314284D01*
X153557200Y-113885713D02*
X153604819Y-113980951D01*
X153604819Y-113980951D02*
X153604819Y-114219046D01*
X153604819Y-114219046D02*
X153557200Y-114314284D01*
X153557200Y-114314284D02*
X153461961Y-114361903D01*
X153461961Y-114361903D02*
X153366723Y-114361903D01*
X153366723Y-114361903D02*
X153271485Y-114314284D01*
X153271485Y-114314284D02*
X153223866Y-114219046D01*
X153223866Y-114219046D02*
X153223866Y-113980951D01*
X153223866Y-113980951D02*
X153176247Y-113885713D01*
X148033333Y-107969580D02*
X147985714Y-108017200D01*
X147985714Y-108017200D02*
X147842857Y-108064819D01*
X147842857Y-108064819D02*
X147747619Y-108064819D01*
X147747619Y-108064819D02*
X147604762Y-108017200D01*
X147604762Y-108017200D02*
X147509524Y-107921961D01*
X147509524Y-107921961D02*
X147461905Y-107826723D01*
X147461905Y-107826723D02*
X147414286Y-107636247D01*
X147414286Y-107636247D02*
X147414286Y-107493390D01*
X147414286Y-107493390D02*
X147461905Y-107302914D01*
X147461905Y-107302914D02*
X147509524Y-107207676D01*
X147509524Y-107207676D02*
X147604762Y-107112438D01*
X147604762Y-107112438D02*
X147747619Y-107064819D01*
X147747619Y-107064819D02*
X147842857Y-107064819D01*
X147842857Y-107064819D02*
X147985714Y-107112438D01*
X147985714Y-107112438D02*
X148033333Y-107160057D01*
X148509524Y-108064819D02*
X148700000Y-108064819D01*
X148700000Y-108064819D02*
X148795238Y-108017200D01*
X148795238Y-108017200D02*
X148842857Y-107969580D01*
X148842857Y-107969580D02*
X148938095Y-107826723D01*
X148938095Y-107826723D02*
X148985714Y-107636247D01*
X148985714Y-107636247D02*
X148985714Y-107255295D01*
X148985714Y-107255295D02*
X148938095Y-107160057D01*
X148938095Y-107160057D02*
X148890476Y-107112438D01*
X148890476Y-107112438D02*
X148795238Y-107064819D01*
X148795238Y-107064819D02*
X148604762Y-107064819D01*
X148604762Y-107064819D02*
X148509524Y-107112438D01*
X148509524Y-107112438D02*
X148461905Y-107160057D01*
X148461905Y-107160057D02*
X148414286Y-107255295D01*
X148414286Y-107255295D02*
X148414286Y-107493390D01*
X148414286Y-107493390D02*
X148461905Y-107588628D01*
X148461905Y-107588628D02*
X148509524Y-107636247D01*
X148509524Y-107636247D02*
X148604762Y-107683866D01*
X148604762Y-107683866D02*
X148795238Y-107683866D01*
X148795238Y-107683866D02*
X148890476Y-107636247D01*
X148890476Y-107636247D02*
X148938095Y-107588628D01*
X148938095Y-107588628D02*
X148985714Y-107493390D01*
X120763095Y-132804819D02*
X120763095Y-133614342D01*
X120763095Y-133614342D02*
X120810714Y-133709580D01*
X120810714Y-133709580D02*
X120858333Y-133757200D01*
X120858333Y-133757200D02*
X120953571Y-133804819D01*
X120953571Y-133804819D02*
X121144047Y-133804819D01*
X121144047Y-133804819D02*
X121239285Y-133757200D01*
X121239285Y-133757200D02*
X121286904Y-133709580D01*
X121286904Y-133709580D02*
X121334523Y-133614342D01*
X121334523Y-133614342D02*
X121334523Y-132804819D01*
X121763095Y-132900057D02*
X121810714Y-132852438D01*
X121810714Y-132852438D02*
X121905952Y-132804819D01*
X121905952Y-132804819D02*
X122144047Y-132804819D01*
X122144047Y-132804819D02*
X122239285Y-132852438D01*
X122239285Y-132852438D02*
X122286904Y-132900057D01*
X122286904Y-132900057D02*
X122334523Y-132995295D01*
X122334523Y-132995295D02*
X122334523Y-133090533D01*
X122334523Y-133090533D02*
X122286904Y-133233390D01*
X122286904Y-133233390D02*
X121715476Y-133804819D01*
X121715476Y-133804819D02*
X122334523Y-133804819D01*
X139365833Y-129394819D02*
X139032500Y-128918628D01*
X138794405Y-129394819D02*
X138794405Y-128394819D01*
X138794405Y-128394819D02*
X139175357Y-128394819D01*
X139175357Y-128394819D02*
X139270595Y-128442438D01*
X139270595Y-128442438D02*
X139318214Y-128490057D01*
X139318214Y-128490057D02*
X139365833Y-128585295D01*
X139365833Y-128585295D02*
X139365833Y-128728152D01*
X139365833Y-128728152D02*
X139318214Y-128823390D01*
X139318214Y-128823390D02*
X139270595Y-128871009D01*
X139270595Y-128871009D02*
X139175357Y-128918628D01*
X139175357Y-128918628D02*
X138794405Y-128918628D01*
X140222976Y-128394819D02*
X140032500Y-128394819D01*
X140032500Y-128394819D02*
X139937262Y-128442438D01*
X139937262Y-128442438D02*
X139889643Y-128490057D01*
X139889643Y-128490057D02*
X139794405Y-128632914D01*
X139794405Y-128632914D02*
X139746786Y-128823390D01*
X139746786Y-128823390D02*
X139746786Y-129204342D01*
X139746786Y-129204342D02*
X139794405Y-129299580D01*
X139794405Y-129299580D02*
X139842024Y-129347200D01*
X139842024Y-129347200D02*
X139937262Y-129394819D01*
X139937262Y-129394819D02*
X140127738Y-129394819D01*
X140127738Y-129394819D02*
X140222976Y-129347200D01*
X140222976Y-129347200D02*
X140270595Y-129299580D01*
X140270595Y-129299580D02*
X140318214Y-129204342D01*
X140318214Y-129204342D02*
X140318214Y-128966247D01*
X140318214Y-128966247D02*
X140270595Y-128871009D01*
X140270595Y-128871009D02*
X140222976Y-128823390D01*
X140222976Y-128823390D02*
X140127738Y-128775771D01*
X140127738Y-128775771D02*
X139937262Y-128775771D01*
X139937262Y-128775771D02*
X139842024Y-128823390D01*
X139842024Y-128823390D02*
X139794405Y-128871009D01*
X139794405Y-128871009D02*
X139746786Y-128966247D01*
X108534819Y-118540357D02*
X108058628Y-118873690D01*
X108534819Y-119111785D02*
X107534819Y-119111785D01*
X107534819Y-119111785D02*
X107534819Y-118730833D01*
X107534819Y-118730833D02*
X107582438Y-118635595D01*
X107582438Y-118635595D02*
X107630057Y-118587976D01*
X107630057Y-118587976D02*
X107725295Y-118540357D01*
X107725295Y-118540357D02*
X107868152Y-118540357D01*
X107868152Y-118540357D02*
X107963390Y-118587976D01*
X107963390Y-118587976D02*
X108011009Y-118635595D01*
X108011009Y-118635595D02*
X108058628Y-118730833D01*
X108058628Y-118730833D02*
X108058628Y-119111785D01*
X108534819Y-117587976D02*
X108534819Y-118159404D01*
X108534819Y-117873690D02*
X107534819Y-117873690D01*
X107534819Y-117873690D02*
X107677676Y-117968928D01*
X107677676Y-117968928D02*
X107772914Y-118064166D01*
X107772914Y-118064166D02*
X107820533Y-118159404D01*
X107534819Y-116968928D02*
X107534819Y-116873690D01*
X107534819Y-116873690D02*
X107582438Y-116778452D01*
X107582438Y-116778452D02*
X107630057Y-116730833D01*
X107630057Y-116730833D02*
X107725295Y-116683214D01*
X107725295Y-116683214D02*
X107915771Y-116635595D01*
X107915771Y-116635595D02*
X108153866Y-116635595D01*
X108153866Y-116635595D02*
X108344342Y-116683214D01*
X108344342Y-116683214D02*
X108439580Y-116730833D01*
X108439580Y-116730833D02*
X108487200Y-116778452D01*
X108487200Y-116778452D02*
X108534819Y-116873690D01*
X108534819Y-116873690D02*
X108534819Y-116968928D01*
X108534819Y-116968928D02*
X108487200Y-117064166D01*
X108487200Y-117064166D02*
X108439580Y-117111785D01*
X108439580Y-117111785D02*
X108344342Y-117159404D01*
X108344342Y-117159404D02*
X108153866Y-117207023D01*
X108153866Y-117207023D02*
X107915771Y-117207023D01*
X107915771Y-117207023D02*
X107725295Y-117159404D01*
X107725295Y-117159404D02*
X107630057Y-117111785D01*
X107630057Y-117111785D02*
X107582438Y-117064166D01*
X107582438Y-117064166D02*
X107534819Y-116968928D01*
X120649580Y-109042857D02*
X120697200Y-109090476D01*
X120697200Y-109090476D02*
X120744819Y-109233333D01*
X120744819Y-109233333D02*
X120744819Y-109328571D01*
X120744819Y-109328571D02*
X120697200Y-109471428D01*
X120697200Y-109471428D02*
X120601961Y-109566666D01*
X120601961Y-109566666D02*
X120506723Y-109614285D01*
X120506723Y-109614285D02*
X120316247Y-109661904D01*
X120316247Y-109661904D02*
X120173390Y-109661904D01*
X120173390Y-109661904D02*
X119982914Y-109614285D01*
X119982914Y-109614285D02*
X119887676Y-109566666D01*
X119887676Y-109566666D02*
X119792438Y-109471428D01*
X119792438Y-109471428D02*
X119744819Y-109328571D01*
X119744819Y-109328571D02*
X119744819Y-109233333D01*
X119744819Y-109233333D02*
X119792438Y-109090476D01*
X119792438Y-109090476D02*
X119840057Y-109042857D01*
X120744819Y-108090476D02*
X120744819Y-108661904D01*
X120744819Y-108376190D02*
X119744819Y-108376190D01*
X119744819Y-108376190D02*
X119887676Y-108471428D01*
X119887676Y-108471428D02*
X119982914Y-108566666D01*
X119982914Y-108566666D02*
X120030533Y-108661904D01*
X119744819Y-107471428D02*
X119744819Y-107376190D01*
X119744819Y-107376190D02*
X119792438Y-107280952D01*
X119792438Y-107280952D02*
X119840057Y-107233333D01*
X119840057Y-107233333D02*
X119935295Y-107185714D01*
X119935295Y-107185714D02*
X120125771Y-107138095D01*
X120125771Y-107138095D02*
X120363866Y-107138095D01*
X120363866Y-107138095D02*
X120554342Y-107185714D01*
X120554342Y-107185714D02*
X120649580Y-107233333D01*
X120649580Y-107233333D02*
X120697200Y-107280952D01*
X120697200Y-107280952D02*
X120744819Y-107376190D01*
X120744819Y-107376190D02*
X120744819Y-107471428D01*
X120744819Y-107471428D02*
X120697200Y-107566666D01*
X120697200Y-107566666D02*
X120649580Y-107614285D01*
X120649580Y-107614285D02*
X120554342Y-107661904D01*
X120554342Y-107661904D02*
X120363866Y-107709523D01*
X120363866Y-107709523D02*
X120125771Y-107709523D01*
X120125771Y-107709523D02*
X119935295Y-107661904D01*
X119935295Y-107661904D02*
X119840057Y-107614285D01*
X119840057Y-107614285D02*
X119792438Y-107566666D01*
X119792438Y-107566666D02*
X119744819Y-107471428D01*
X120164819Y-102534166D02*
X119688628Y-102867499D01*
X120164819Y-103105594D02*
X119164819Y-103105594D01*
X119164819Y-103105594D02*
X119164819Y-102724642D01*
X119164819Y-102724642D02*
X119212438Y-102629404D01*
X119212438Y-102629404D02*
X119260057Y-102581785D01*
X119260057Y-102581785D02*
X119355295Y-102534166D01*
X119355295Y-102534166D02*
X119498152Y-102534166D01*
X119498152Y-102534166D02*
X119593390Y-102581785D01*
X119593390Y-102581785D02*
X119641009Y-102629404D01*
X119641009Y-102629404D02*
X119688628Y-102724642D01*
X119688628Y-102724642D02*
X119688628Y-103105594D01*
X119593390Y-101962737D02*
X119545771Y-102057975D01*
X119545771Y-102057975D02*
X119498152Y-102105594D01*
X119498152Y-102105594D02*
X119402914Y-102153213D01*
X119402914Y-102153213D02*
X119355295Y-102153213D01*
X119355295Y-102153213D02*
X119260057Y-102105594D01*
X119260057Y-102105594D02*
X119212438Y-102057975D01*
X119212438Y-102057975D02*
X119164819Y-101962737D01*
X119164819Y-101962737D02*
X119164819Y-101772261D01*
X119164819Y-101772261D02*
X119212438Y-101677023D01*
X119212438Y-101677023D02*
X119260057Y-101629404D01*
X119260057Y-101629404D02*
X119355295Y-101581785D01*
X119355295Y-101581785D02*
X119402914Y-101581785D01*
X119402914Y-101581785D02*
X119498152Y-101629404D01*
X119498152Y-101629404D02*
X119545771Y-101677023D01*
X119545771Y-101677023D02*
X119593390Y-101772261D01*
X119593390Y-101772261D02*
X119593390Y-101962737D01*
X119593390Y-101962737D02*
X119641009Y-102057975D01*
X119641009Y-102057975D02*
X119688628Y-102105594D01*
X119688628Y-102105594D02*
X119783866Y-102153213D01*
X119783866Y-102153213D02*
X119974342Y-102153213D01*
X119974342Y-102153213D02*
X120069580Y-102105594D01*
X120069580Y-102105594D02*
X120117200Y-102057975D01*
X120117200Y-102057975D02*
X120164819Y-101962737D01*
X120164819Y-101962737D02*
X120164819Y-101772261D01*
X120164819Y-101772261D02*
X120117200Y-101677023D01*
X120117200Y-101677023D02*
X120069580Y-101629404D01*
X120069580Y-101629404D02*
X119974342Y-101581785D01*
X119974342Y-101581785D02*
X119783866Y-101581785D01*
X119783866Y-101581785D02*
X119688628Y-101629404D01*
X119688628Y-101629404D02*
X119641009Y-101677023D01*
X119641009Y-101677023D02*
X119593390Y-101772261D01*
X119004819Y-107966666D02*
X118528628Y-108299999D01*
X119004819Y-108538094D02*
X118004819Y-108538094D01*
X118004819Y-108538094D02*
X118004819Y-108157142D01*
X118004819Y-108157142D02*
X118052438Y-108061904D01*
X118052438Y-108061904D02*
X118100057Y-108014285D01*
X118100057Y-108014285D02*
X118195295Y-107966666D01*
X118195295Y-107966666D02*
X118338152Y-107966666D01*
X118338152Y-107966666D02*
X118433390Y-108014285D01*
X118433390Y-108014285D02*
X118481009Y-108061904D01*
X118481009Y-108061904D02*
X118528628Y-108157142D01*
X118528628Y-108157142D02*
X118528628Y-108538094D01*
X119004819Y-107490475D02*
X119004819Y-107299999D01*
X119004819Y-107299999D02*
X118957200Y-107204761D01*
X118957200Y-107204761D02*
X118909580Y-107157142D01*
X118909580Y-107157142D02*
X118766723Y-107061904D01*
X118766723Y-107061904D02*
X118576247Y-107014285D01*
X118576247Y-107014285D02*
X118195295Y-107014285D01*
X118195295Y-107014285D02*
X118100057Y-107061904D01*
X118100057Y-107061904D02*
X118052438Y-107109523D01*
X118052438Y-107109523D02*
X118004819Y-107204761D01*
X118004819Y-107204761D02*
X118004819Y-107395237D01*
X118004819Y-107395237D02*
X118052438Y-107490475D01*
X118052438Y-107490475D02*
X118100057Y-107538094D01*
X118100057Y-107538094D02*
X118195295Y-107585713D01*
X118195295Y-107585713D02*
X118433390Y-107585713D01*
X118433390Y-107585713D02*
X118528628Y-107538094D01*
X118528628Y-107538094D02*
X118576247Y-107490475D01*
X118576247Y-107490475D02*
X118623866Y-107395237D01*
X118623866Y-107395237D02*
X118623866Y-107204761D01*
X118623866Y-107204761D02*
X118576247Y-107109523D01*
X118576247Y-107109523D02*
X118528628Y-107061904D01*
X118528628Y-107061904D02*
X118433390Y-107014285D01*
X123766667Y-117907200D02*
X123909524Y-117954819D01*
X123909524Y-117954819D02*
X124147619Y-117954819D01*
X124147619Y-117954819D02*
X124242857Y-117907200D01*
X124242857Y-117907200D02*
X124290476Y-117859580D01*
X124290476Y-117859580D02*
X124338095Y-117764342D01*
X124338095Y-117764342D02*
X124338095Y-117669104D01*
X124338095Y-117669104D02*
X124290476Y-117573866D01*
X124290476Y-117573866D02*
X124242857Y-117526247D01*
X124242857Y-117526247D02*
X124147619Y-117478628D01*
X124147619Y-117478628D02*
X123957143Y-117431009D01*
X123957143Y-117431009D02*
X123861905Y-117383390D01*
X123861905Y-117383390D02*
X123814286Y-117335771D01*
X123814286Y-117335771D02*
X123766667Y-117240533D01*
X123766667Y-117240533D02*
X123766667Y-117145295D01*
X123766667Y-117145295D02*
X123814286Y-117050057D01*
X123814286Y-117050057D02*
X123861905Y-117002438D01*
X123861905Y-117002438D02*
X123957143Y-116954819D01*
X123957143Y-116954819D02*
X124195238Y-116954819D01*
X124195238Y-116954819D02*
X124338095Y-117002438D01*
X124671429Y-116954819D02*
X124909524Y-117954819D01*
X124909524Y-117954819D02*
X125100000Y-117240533D01*
X125100000Y-117240533D02*
X125290476Y-117954819D01*
X125290476Y-117954819D02*
X125528572Y-116954819D01*
X126433333Y-117954819D02*
X125861905Y-117954819D01*
X126147619Y-117954819D02*
X126147619Y-116954819D01*
X126147619Y-116954819D02*
X126052381Y-117097676D01*
X126052381Y-117097676D02*
X125957143Y-117192914D01*
X125957143Y-117192914D02*
X125861905Y-117240533D01*
X108433333Y-133009580D02*
X108385714Y-133057200D01*
X108385714Y-133057200D02*
X108242857Y-133104819D01*
X108242857Y-133104819D02*
X108147619Y-133104819D01*
X108147619Y-133104819D02*
X108004762Y-133057200D01*
X108004762Y-133057200D02*
X107909524Y-132961961D01*
X107909524Y-132961961D02*
X107861905Y-132866723D01*
X107861905Y-132866723D02*
X107814286Y-132676247D01*
X107814286Y-132676247D02*
X107814286Y-132533390D01*
X107814286Y-132533390D02*
X107861905Y-132342914D01*
X107861905Y-132342914D02*
X107909524Y-132247676D01*
X107909524Y-132247676D02*
X108004762Y-132152438D01*
X108004762Y-132152438D02*
X108147619Y-132104819D01*
X108147619Y-132104819D02*
X108242857Y-132104819D01*
X108242857Y-132104819D02*
X108385714Y-132152438D01*
X108385714Y-132152438D02*
X108433333Y-132200057D01*
X109290476Y-132438152D02*
X109290476Y-133104819D01*
X109052381Y-132057200D02*
X108814286Y-132771485D01*
X108814286Y-132771485D02*
X109433333Y-132771485D01*
X123399819Y-127714166D02*
X122923628Y-128047499D01*
X123399819Y-128285594D02*
X122399819Y-128285594D01*
X122399819Y-128285594D02*
X122399819Y-127904642D01*
X122399819Y-127904642D02*
X122447438Y-127809404D01*
X122447438Y-127809404D02*
X122495057Y-127761785D01*
X122495057Y-127761785D02*
X122590295Y-127714166D01*
X122590295Y-127714166D02*
X122733152Y-127714166D01*
X122733152Y-127714166D02*
X122828390Y-127761785D01*
X122828390Y-127761785D02*
X122876009Y-127809404D01*
X122876009Y-127809404D02*
X122923628Y-127904642D01*
X122923628Y-127904642D02*
X122923628Y-128285594D01*
X123399819Y-126761785D02*
X123399819Y-127333213D01*
X123399819Y-127047499D02*
X122399819Y-127047499D01*
X122399819Y-127047499D02*
X122542676Y-127142737D01*
X122542676Y-127142737D02*
X122637914Y-127237975D01*
X122637914Y-127237975D02*
X122685533Y-127333213D01*
X105665833Y-131644819D02*
X105332500Y-131168628D01*
X105094405Y-131644819D02*
X105094405Y-130644819D01*
X105094405Y-130644819D02*
X105475357Y-130644819D01*
X105475357Y-130644819D02*
X105570595Y-130692438D01*
X105570595Y-130692438D02*
X105618214Y-130740057D01*
X105618214Y-130740057D02*
X105665833Y-130835295D01*
X105665833Y-130835295D02*
X105665833Y-130978152D01*
X105665833Y-130978152D02*
X105618214Y-131073390D01*
X105618214Y-131073390D02*
X105570595Y-131121009D01*
X105570595Y-131121009D02*
X105475357Y-131168628D01*
X105475357Y-131168628D02*
X105094405Y-131168628D01*
X106570595Y-130644819D02*
X106094405Y-130644819D01*
X106094405Y-130644819D02*
X106046786Y-131121009D01*
X106046786Y-131121009D02*
X106094405Y-131073390D01*
X106094405Y-131073390D02*
X106189643Y-131025771D01*
X106189643Y-131025771D02*
X106427738Y-131025771D01*
X106427738Y-131025771D02*
X106522976Y-131073390D01*
X106522976Y-131073390D02*
X106570595Y-131121009D01*
X106570595Y-131121009D02*
X106618214Y-131216247D01*
X106618214Y-131216247D02*
X106618214Y-131454342D01*
X106618214Y-131454342D02*
X106570595Y-131549580D01*
X106570595Y-131549580D02*
X106522976Y-131597200D01*
X106522976Y-131597200D02*
X106427738Y-131644819D01*
X106427738Y-131644819D02*
X106189643Y-131644819D01*
X106189643Y-131644819D02*
X106094405Y-131597200D01*
X106094405Y-131597200D02*
X106046786Y-131549580D01*
X118382080Y-136834166D02*
X118429700Y-136881785D01*
X118429700Y-136881785D02*
X118477319Y-137024642D01*
X118477319Y-137024642D02*
X118477319Y-137119880D01*
X118477319Y-137119880D02*
X118429700Y-137262737D01*
X118429700Y-137262737D02*
X118334461Y-137357975D01*
X118334461Y-137357975D02*
X118239223Y-137405594D01*
X118239223Y-137405594D02*
X118048747Y-137453213D01*
X118048747Y-137453213D02*
X117905890Y-137453213D01*
X117905890Y-137453213D02*
X117715414Y-137405594D01*
X117715414Y-137405594D02*
X117620176Y-137357975D01*
X117620176Y-137357975D02*
X117524938Y-137262737D01*
X117524938Y-137262737D02*
X117477319Y-137119880D01*
X117477319Y-137119880D02*
X117477319Y-137024642D01*
X117477319Y-137024642D02*
X117524938Y-136881785D01*
X117524938Y-136881785D02*
X117572557Y-136834166D01*
X118477319Y-135881785D02*
X118477319Y-136453213D01*
X118477319Y-136167499D02*
X117477319Y-136167499D01*
X117477319Y-136167499D02*
X117620176Y-136262737D01*
X117620176Y-136262737D02*
X117715414Y-136357975D01*
X117715414Y-136357975D02*
X117763033Y-136453213D01*
X130274819Y-137818094D02*
X129274819Y-137818094D01*
X129274819Y-137818094D02*
X129274819Y-137579999D01*
X129274819Y-137579999D02*
X129322438Y-137437142D01*
X129322438Y-137437142D02*
X129417676Y-137341904D01*
X129417676Y-137341904D02*
X129512914Y-137294285D01*
X129512914Y-137294285D02*
X129703390Y-137246666D01*
X129703390Y-137246666D02*
X129846247Y-137246666D01*
X129846247Y-137246666D02*
X130036723Y-137294285D01*
X130036723Y-137294285D02*
X130131961Y-137341904D01*
X130131961Y-137341904D02*
X130227200Y-137437142D01*
X130227200Y-137437142D02*
X130274819Y-137579999D01*
X130274819Y-137579999D02*
X130274819Y-137818094D01*
X129608152Y-136389523D02*
X130274819Y-136389523D01*
X129227200Y-136627618D02*
X129941485Y-136865713D01*
X129941485Y-136865713D02*
X129941485Y-136246666D01*
X138944819Y-106834166D02*
X138468628Y-107167499D01*
X138944819Y-107405594D02*
X137944819Y-107405594D01*
X137944819Y-107405594D02*
X137944819Y-107024642D01*
X137944819Y-107024642D02*
X137992438Y-106929404D01*
X137992438Y-106929404D02*
X138040057Y-106881785D01*
X138040057Y-106881785D02*
X138135295Y-106834166D01*
X138135295Y-106834166D02*
X138278152Y-106834166D01*
X138278152Y-106834166D02*
X138373390Y-106881785D01*
X138373390Y-106881785D02*
X138421009Y-106929404D01*
X138421009Y-106929404D02*
X138468628Y-107024642D01*
X138468628Y-107024642D02*
X138468628Y-107405594D01*
X138040057Y-106453213D02*
X137992438Y-106405594D01*
X137992438Y-106405594D02*
X137944819Y-106310356D01*
X137944819Y-106310356D02*
X137944819Y-106072261D01*
X137944819Y-106072261D02*
X137992438Y-105977023D01*
X137992438Y-105977023D02*
X138040057Y-105929404D01*
X138040057Y-105929404D02*
X138135295Y-105881785D01*
X138135295Y-105881785D02*
X138230533Y-105881785D01*
X138230533Y-105881785D02*
X138373390Y-105929404D01*
X138373390Y-105929404D02*
X138944819Y-106500832D01*
X138944819Y-106500832D02*
X138944819Y-105881785D01*
X143550833Y-129894819D02*
X143217500Y-129418628D01*
X142979405Y-129894819D02*
X142979405Y-128894819D01*
X142979405Y-128894819D02*
X143360357Y-128894819D01*
X143360357Y-128894819D02*
X143455595Y-128942438D01*
X143455595Y-128942438D02*
X143503214Y-128990057D01*
X143503214Y-128990057D02*
X143550833Y-129085295D01*
X143550833Y-129085295D02*
X143550833Y-129228152D01*
X143550833Y-129228152D02*
X143503214Y-129323390D01*
X143503214Y-129323390D02*
X143455595Y-129371009D01*
X143455595Y-129371009D02*
X143360357Y-129418628D01*
X143360357Y-129418628D02*
X142979405Y-129418628D01*
X143884167Y-128894819D02*
X144550833Y-128894819D01*
X144550833Y-128894819D02*
X144122262Y-129894819D01*
X116929819Y-129388094D02*
X115929819Y-129388094D01*
X115929819Y-129388094D02*
X115929819Y-129149999D01*
X115929819Y-129149999D02*
X115977438Y-129007142D01*
X115977438Y-129007142D02*
X116072676Y-128911904D01*
X116072676Y-128911904D02*
X116167914Y-128864285D01*
X116167914Y-128864285D02*
X116358390Y-128816666D01*
X116358390Y-128816666D02*
X116501247Y-128816666D01*
X116501247Y-128816666D02*
X116691723Y-128864285D01*
X116691723Y-128864285D02*
X116786961Y-128911904D01*
X116786961Y-128911904D02*
X116882200Y-129007142D01*
X116882200Y-129007142D02*
X116929819Y-129149999D01*
X116929819Y-129149999D02*
X116929819Y-129388094D01*
X116929819Y-127864285D02*
X116929819Y-128435713D01*
X116929819Y-128149999D02*
X115929819Y-128149999D01*
X115929819Y-128149999D02*
X116072676Y-128245237D01*
X116072676Y-128245237D02*
X116167914Y-128340475D01*
X116167914Y-128340475D02*
X116215533Y-128435713D01*
X107138095Y-125554819D02*
X107138095Y-126364342D01*
X107138095Y-126364342D02*
X107185714Y-126459580D01*
X107185714Y-126459580D02*
X107233333Y-126507200D01*
X107233333Y-126507200D02*
X107328571Y-126554819D01*
X107328571Y-126554819D02*
X107519047Y-126554819D01*
X107519047Y-126554819D02*
X107614285Y-126507200D01*
X107614285Y-126507200D02*
X107661904Y-126459580D01*
X107661904Y-126459580D02*
X107709523Y-126364342D01*
X107709523Y-126364342D02*
X107709523Y-125554819D01*
X108709523Y-126554819D02*
X108138095Y-126554819D01*
X108423809Y-126554819D02*
X108423809Y-125554819D01*
X108423809Y-125554819D02*
X108328571Y-125697676D01*
X108328571Y-125697676D02*
X108233333Y-125792914D01*
X108233333Y-125792914D02*
X108138095Y-125840533D01*
X104654819Y-130038094D02*
X103654819Y-130038094D01*
X103654819Y-130038094D02*
X103654819Y-129799999D01*
X103654819Y-129799999D02*
X103702438Y-129657142D01*
X103702438Y-129657142D02*
X103797676Y-129561904D01*
X103797676Y-129561904D02*
X103892914Y-129514285D01*
X103892914Y-129514285D02*
X104083390Y-129466666D01*
X104083390Y-129466666D02*
X104226247Y-129466666D01*
X104226247Y-129466666D02*
X104416723Y-129514285D01*
X104416723Y-129514285D02*
X104511961Y-129561904D01*
X104511961Y-129561904D02*
X104607200Y-129657142D01*
X104607200Y-129657142D02*
X104654819Y-129799999D01*
X104654819Y-129799999D02*
X104654819Y-130038094D01*
X103750057Y-129085713D02*
X103702438Y-129038094D01*
X103702438Y-129038094D02*
X103654819Y-128942856D01*
X103654819Y-128942856D02*
X103654819Y-128704761D01*
X103654819Y-128704761D02*
X103702438Y-128609523D01*
X103702438Y-128609523D02*
X103750057Y-128561904D01*
X103750057Y-128561904D02*
X103845295Y-128514285D01*
X103845295Y-128514285D02*
X103940533Y-128514285D01*
X103940533Y-128514285D02*
X104083390Y-128561904D01*
X104083390Y-128561904D02*
X104654819Y-129133332D01*
X104654819Y-129133332D02*
X104654819Y-128514285D01*
X115238095Y-101804819D02*
X115238095Y-102614342D01*
X115238095Y-102614342D02*
X115285714Y-102709580D01*
X115285714Y-102709580D02*
X115333333Y-102757200D01*
X115333333Y-102757200D02*
X115428571Y-102804819D01*
X115428571Y-102804819D02*
X115619047Y-102804819D01*
X115619047Y-102804819D02*
X115714285Y-102757200D01*
X115714285Y-102757200D02*
X115761904Y-102709580D01*
X115761904Y-102709580D02*
X115809523Y-102614342D01*
X115809523Y-102614342D02*
X115809523Y-101804819D01*
X116190476Y-101804819D02*
X116809523Y-101804819D01*
X116809523Y-101804819D02*
X116476190Y-102185771D01*
X116476190Y-102185771D02*
X116619047Y-102185771D01*
X116619047Y-102185771D02*
X116714285Y-102233390D01*
X116714285Y-102233390D02*
X116761904Y-102281009D01*
X116761904Y-102281009D02*
X116809523Y-102376247D01*
X116809523Y-102376247D02*
X116809523Y-102614342D01*
X116809523Y-102614342D02*
X116761904Y-102709580D01*
X116761904Y-102709580D02*
X116714285Y-102757200D01*
X116714285Y-102757200D02*
X116619047Y-102804819D01*
X116619047Y-102804819D02*
X116333333Y-102804819D01*
X116333333Y-102804819D02*
X116238095Y-102757200D01*
X116238095Y-102757200D02*
X116190476Y-102709580D01*
X147665833Y-129894819D02*
X147332500Y-129418628D01*
X147094405Y-129894819D02*
X147094405Y-128894819D01*
X147094405Y-128894819D02*
X147475357Y-128894819D01*
X147475357Y-128894819D02*
X147570595Y-128942438D01*
X147570595Y-128942438D02*
X147618214Y-128990057D01*
X147618214Y-128990057D02*
X147665833Y-129085295D01*
X147665833Y-129085295D02*
X147665833Y-129228152D01*
X147665833Y-129228152D02*
X147618214Y-129323390D01*
X147618214Y-129323390D02*
X147570595Y-129371009D01*
X147570595Y-129371009D02*
X147475357Y-129418628D01*
X147475357Y-129418628D02*
X147094405Y-129418628D01*
X147999167Y-128894819D02*
X148618214Y-128894819D01*
X148618214Y-128894819D02*
X148284881Y-129275771D01*
X148284881Y-129275771D02*
X148427738Y-129275771D01*
X148427738Y-129275771D02*
X148522976Y-129323390D01*
X148522976Y-129323390D02*
X148570595Y-129371009D01*
X148570595Y-129371009D02*
X148618214Y-129466247D01*
X148618214Y-129466247D02*
X148618214Y-129704342D01*
X148618214Y-129704342D02*
X148570595Y-129799580D01*
X148570595Y-129799580D02*
X148522976Y-129847200D01*
X148522976Y-129847200D02*
X148427738Y-129894819D01*
X148427738Y-129894819D02*
X148142024Y-129894819D01*
X148142024Y-129894819D02*
X148046786Y-129847200D01*
X148046786Y-129847200D02*
X147999167Y-129799580D01*
X112109580Y-104266666D02*
X112157200Y-104314285D01*
X112157200Y-104314285D02*
X112204819Y-104457142D01*
X112204819Y-104457142D02*
X112204819Y-104552380D01*
X112204819Y-104552380D02*
X112157200Y-104695237D01*
X112157200Y-104695237D02*
X112061961Y-104790475D01*
X112061961Y-104790475D02*
X111966723Y-104838094D01*
X111966723Y-104838094D02*
X111776247Y-104885713D01*
X111776247Y-104885713D02*
X111633390Y-104885713D01*
X111633390Y-104885713D02*
X111442914Y-104838094D01*
X111442914Y-104838094D02*
X111347676Y-104790475D01*
X111347676Y-104790475D02*
X111252438Y-104695237D01*
X111252438Y-104695237D02*
X111204819Y-104552380D01*
X111204819Y-104552380D02*
X111204819Y-104457142D01*
X111204819Y-104457142D02*
X111252438Y-104314285D01*
X111252438Y-104314285D02*
X111300057Y-104266666D01*
X111204819Y-103933332D02*
X111204819Y-103266666D01*
X111204819Y-103266666D02*
X112204819Y-103695237D01*
X101409580Y-126616666D02*
X101457200Y-126664285D01*
X101457200Y-126664285D02*
X101504819Y-126807142D01*
X101504819Y-126807142D02*
X101504819Y-126902380D01*
X101504819Y-126902380D02*
X101457200Y-127045237D01*
X101457200Y-127045237D02*
X101361961Y-127140475D01*
X101361961Y-127140475D02*
X101266723Y-127188094D01*
X101266723Y-127188094D02*
X101076247Y-127235713D01*
X101076247Y-127235713D02*
X100933390Y-127235713D01*
X100933390Y-127235713D02*
X100742914Y-127188094D01*
X100742914Y-127188094D02*
X100647676Y-127140475D01*
X100647676Y-127140475D02*
X100552438Y-127045237D01*
X100552438Y-127045237D02*
X100504819Y-126902380D01*
X100504819Y-126902380D02*
X100504819Y-126807142D01*
X100504819Y-126807142D02*
X100552438Y-126664285D01*
X100552438Y-126664285D02*
X100600057Y-126616666D01*
X100504819Y-126283332D02*
X100504819Y-125664285D01*
X100504819Y-125664285D02*
X100885771Y-125997618D01*
X100885771Y-125997618D02*
X100885771Y-125854761D01*
X100885771Y-125854761D02*
X100933390Y-125759523D01*
X100933390Y-125759523D02*
X100981009Y-125711904D01*
X100981009Y-125711904D02*
X101076247Y-125664285D01*
X101076247Y-125664285D02*
X101314342Y-125664285D01*
X101314342Y-125664285D02*
X101409580Y-125711904D01*
X101409580Y-125711904D02*
X101457200Y-125759523D01*
X101457200Y-125759523D02*
X101504819Y-125854761D01*
X101504819Y-125854761D02*
X101504819Y-126140475D01*
X101504819Y-126140475D02*
X101457200Y-126235713D01*
X101457200Y-126235713D02*
X101409580Y-126283332D01*
X126369580Y-136484166D02*
X126417200Y-136531785D01*
X126417200Y-136531785D02*
X126464819Y-136674642D01*
X126464819Y-136674642D02*
X126464819Y-136769880D01*
X126464819Y-136769880D02*
X126417200Y-136912737D01*
X126417200Y-136912737D02*
X126321961Y-137007975D01*
X126321961Y-137007975D02*
X126226723Y-137055594D01*
X126226723Y-137055594D02*
X126036247Y-137103213D01*
X126036247Y-137103213D02*
X125893390Y-137103213D01*
X125893390Y-137103213D02*
X125702914Y-137055594D01*
X125702914Y-137055594D02*
X125607676Y-137007975D01*
X125607676Y-137007975D02*
X125512438Y-136912737D01*
X125512438Y-136912737D02*
X125464819Y-136769880D01*
X125464819Y-136769880D02*
X125464819Y-136674642D01*
X125464819Y-136674642D02*
X125512438Y-136531785D01*
X125512438Y-136531785D02*
X125560057Y-136484166D01*
X125560057Y-136103213D02*
X125512438Y-136055594D01*
X125512438Y-136055594D02*
X125464819Y-135960356D01*
X125464819Y-135960356D02*
X125464819Y-135722261D01*
X125464819Y-135722261D02*
X125512438Y-135627023D01*
X125512438Y-135627023D02*
X125560057Y-135579404D01*
X125560057Y-135579404D02*
X125655295Y-135531785D01*
X125655295Y-135531785D02*
X125750533Y-135531785D01*
X125750533Y-135531785D02*
X125893390Y-135579404D01*
X125893390Y-135579404D02*
X126464819Y-136150832D01*
X126464819Y-136150832D02*
X126464819Y-135531785D01*
X105824819Y-126664166D02*
X105348628Y-126997499D01*
X105824819Y-127235594D02*
X104824819Y-127235594D01*
X104824819Y-127235594D02*
X104824819Y-126854642D01*
X104824819Y-126854642D02*
X104872438Y-126759404D01*
X104872438Y-126759404D02*
X104920057Y-126711785D01*
X104920057Y-126711785D02*
X105015295Y-126664166D01*
X105015295Y-126664166D02*
X105158152Y-126664166D01*
X105158152Y-126664166D02*
X105253390Y-126711785D01*
X105253390Y-126711785D02*
X105301009Y-126759404D01*
X105301009Y-126759404D02*
X105348628Y-126854642D01*
X105348628Y-126854642D02*
X105348628Y-127235594D01*
X105158152Y-125807023D02*
X105824819Y-125807023D01*
X104777200Y-126045118D02*
X105491485Y-126283213D01*
X105491485Y-126283213D02*
X105491485Y-125664166D01*
X120883333Y-131559580D02*
X120835714Y-131607200D01*
X120835714Y-131607200D02*
X120692857Y-131654819D01*
X120692857Y-131654819D02*
X120597619Y-131654819D01*
X120597619Y-131654819D02*
X120454762Y-131607200D01*
X120454762Y-131607200D02*
X120359524Y-131511961D01*
X120359524Y-131511961D02*
X120311905Y-131416723D01*
X120311905Y-131416723D02*
X120264286Y-131226247D01*
X120264286Y-131226247D02*
X120264286Y-131083390D01*
X120264286Y-131083390D02*
X120311905Y-130892914D01*
X120311905Y-130892914D02*
X120359524Y-130797676D01*
X120359524Y-130797676D02*
X120454762Y-130702438D01*
X120454762Y-130702438D02*
X120597619Y-130654819D01*
X120597619Y-130654819D02*
X120692857Y-130654819D01*
X120692857Y-130654819D02*
X120835714Y-130702438D01*
X120835714Y-130702438D02*
X120883333Y-130750057D01*
X121788095Y-130654819D02*
X121311905Y-130654819D01*
X121311905Y-130654819D02*
X121264286Y-131131009D01*
X121264286Y-131131009D02*
X121311905Y-131083390D01*
X121311905Y-131083390D02*
X121407143Y-131035771D01*
X121407143Y-131035771D02*
X121645238Y-131035771D01*
X121645238Y-131035771D02*
X121740476Y-131083390D01*
X121740476Y-131083390D02*
X121788095Y-131131009D01*
X121788095Y-131131009D02*
X121835714Y-131226247D01*
X121835714Y-131226247D02*
X121835714Y-131464342D01*
X121835714Y-131464342D02*
X121788095Y-131559580D01*
X121788095Y-131559580D02*
X121740476Y-131607200D01*
X121740476Y-131607200D02*
X121645238Y-131654819D01*
X121645238Y-131654819D02*
X121407143Y-131654819D01*
X121407143Y-131654819D02*
X121311905Y-131607200D01*
X121311905Y-131607200D02*
X121264286Y-131559580D01*
X127394819Y-122460357D02*
X126918628Y-122793690D01*
X127394819Y-123031785D02*
X126394819Y-123031785D01*
X126394819Y-123031785D02*
X126394819Y-122650833D01*
X126394819Y-122650833D02*
X126442438Y-122555595D01*
X126442438Y-122555595D02*
X126490057Y-122507976D01*
X126490057Y-122507976D02*
X126585295Y-122460357D01*
X126585295Y-122460357D02*
X126728152Y-122460357D01*
X126728152Y-122460357D02*
X126823390Y-122507976D01*
X126823390Y-122507976D02*
X126871009Y-122555595D01*
X126871009Y-122555595D02*
X126918628Y-122650833D01*
X126918628Y-122650833D02*
X126918628Y-123031785D01*
X127394819Y-121507976D02*
X127394819Y-122079404D01*
X127394819Y-121793690D02*
X126394819Y-121793690D01*
X126394819Y-121793690D02*
X126537676Y-121888928D01*
X126537676Y-121888928D02*
X126632914Y-121984166D01*
X126632914Y-121984166D02*
X126680533Y-122079404D01*
X126490057Y-121127023D02*
X126442438Y-121079404D01*
X126442438Y-121079404D02*
X126394819Y-120984166D01*
X126394819Y-120984166D02*
X126394819Y-120746071D01*
X126394819Y-120746071D02*
X126442438Y-120650833D01*
X126442438Y-120650833D02*
X126490057Y-120603214D01*
X126490057Y-120603214D02*
X126585295Y-120555595D01*
X126585295Y-120555595D02*
X126680533Y-120555595D01*
X126680533Y-120555595D02*
X126823390Y-120603214D01*
X126823390Y-120603214D02*
X127394819Y-121174642D01*
X127394819Y-121174642D02*
X127394819Y-120555595D01*
X123766667Y-108807200D02*
X123909524Y-108854819D01*
X123909524Y-108854819D02*
X124147619Y-108854819D01*
X124147619Y-108854819D02*
X124242857Y-108807200D01*
X124242857Y-108807200D02*
X124290476Y-108759580D01*
X124290476Y-108759580D02*
X124338095Y-108664342D01*
X124338095Y-108664342D02*
X124338095Y-108569104D01*
X124338095Y-108569104D02*
X124290476Y-108473866D01*
X124290476Y-108473866D02*
X124242857Y-108426247D01*
X124242857Y-108426247D02*
X124147619Y-108378628D01*
X124147619Y-108378628D02*
X123957143Y-108331009D01*
X123957143Y-108331009D02*
X123861905Y-108283390D01*
X123861905Y-108283390D02*
X123814286Y-108235771D01*
X123814286Y-108235771D02*
X123766667Y-108140533D01*
X123766667Y-108140533D02*
X123766667Y-108045295D01*
X123766667Y-108045295D02*
X123814286Y-107950057D01*
X123814286Y-107950057D02*
X123861905Y-107902438D01*
X123861905Y-107902438D02*
X123957143Y-107854819D01*
X123957143Y-107854819D02*
X124195238Y-107854819D01*
X124195238Y-107854819D02*
X124338095Y-107902438D01*
X124671429Y-107854819D02*
X124909524Y-108854819D01*
X124909524Y-108854819D02*
X125100000Y-108140533D01*
X125100000Y-108140533D02*
X125290476Y-108854819D01*
X125290476Y-108854819D02*
X125528572Y-107854819D01*
X125861905Y-107950057D02*
X125909524Y-107902438D01*
X125909524Y-107902438D02*
X126004762Y-107854819D01*
X126004762Y-107854819D02*
X126242857Y-107854819D01*
X126242857Y-107854819D02*
X126338095Y-107902438D01*
X126338095Y-107902438D02*
X126385714Y-107950057D01*
X126385714Y-107950057D02*
X126433333Y-108045295D01*
X126433333Y-108045295D02*
X126433333Y-108140533D01*
X126433333Y-108140533D02*
X126385714Y-108283390D01*
X126385714Y-108283390D02*
X125814286Y-108854819D01*
X125814286Y-108854819D02*
X126433333Y-108854819D01*
X140916666Y-136804819D02*
X140916666Y-137519104D01*
X140916666Y-137519104D02*
X140869047Y-137661961D01*
X140869047Y-137661961D02*
X140773809Y-137757200D01*
X140773809Y-137757200D02*
X140630952Y-137804819D01*
X140630952Y-137804819D02*
X140535714Y-137804819D01*
X141916666Y-137804819D02*
X141345238Y-137804819D01*
X141630952Y-137804819D02*
X141630952Y-136804819D01*
X141630952Y-136804819D02*
X141535714Y-136947676D01*
X141535714Y-136947676D02*
X141440476Y-137042914D01*
X141440476Y-137042914D02*
X141345238Y-137090533D01*
X104766009Y-137405714D02*
X104813628Y-137262857D01*
X104813628Y-137262857D02*
X104861247Y-137215238D01*
X104861247Y-137215238D02*
X104956485Y-137167619D01*
X104956485Y-137167619D02*
X105099342Y-137167619D01*
X105099342Y-137167619D02*
X105194580Y-137215238D01*
X105194580Y-137215238D02*
X105242200Y-137262857D01*
X105242200Y-137262857D02*
X105289819Y-137358095D01*
X105289819Y-137358095D02*
X105289819Y-137739047D01*
X105289819Y-137739047D02*
X104289819Y-137739047D01*
X104289819Y-137739047D02*
X104289819Y-137405714D01*
X104289819Y-137405714D02*
X104337438Y-137310476D01*
X104337438Y-137310476D02*
X104385057Y-137262857D01*
X104385057Y-137262857D02*
X104480295Y-137215238D01*
X104480295Y-137215238D02*
X104575533Y-137215238D01*
X104575533Y-137215238D02*
X104670771Y-137262857D01*
X104670771Y-137262857D02*
X104718390Y-137310476D01*
X104718390Y-137310476D02*
X104766009Y-137405714D01*
X104766009Y-137405714D02*
X104766009Y-137739047D01*
X104289819Y-136881904D02*
X104289819Y-136310476D01*
X105289819Y-136596190D02*
X104289819Y-136596190D01*
X105289819Y-135453333D02*
X105289819Y-136024761D01*
X105289819Y-135739047D02*
X104289819Y-135739047D01*
X104289819Y-135739047D02*
X104432676Y-135834285D01*
X104432676Y-135834285D02*
X104527914Y-135929523D01*
X104527914Y-135929523D02*
X104575533Y-136024761D01*
X102754819Y-115611904D02*
X103564342Y-115611904D01*
X103564342Y-115611904D02*
X103659580Y-115564285D01*
X103659580Y-115564285D02*
X103707200Y-115516666D01*
X103707200Y-115516666D02*
X103754819Y-115421428D01*
X103754819Y-115421428D02*
X103754819Y-115230952D01*
X103754819Y-115230952D02*
X103707200Y-115135714D01*
X103707200Y-115135714D02*
X103659580Y-115088095D01*
X103659580Y-115088095D02*
X103564342Y-115040476D01*
X103564342Y-115040476D02*
X102754819Y-115040476D01*
X103088152Y-114135714D02*
X103754819Y-114135714D01*
X102707200Y-114373809D02*
X103421485Y-114611904D01*
X103421485Y-114611904D02*
X103421485Y-113992857D01*
D11*
%TO.C,S1*%
X115150000Y-136300000D02*
X115150000Y-139900000D01*
X106150000Y-139900000D02*
X115150000Y-139900000D01*
X106150000Y-136300000D02*
X106150000Y-139900000D01*
D12*
%TO.C,D3*%
X108150000Y-103950000D02*
X108150000Y-111250000D01*
X102650000Y-103950000D02*
X102650000Y-111250000D01*
X102650000Y-111250000D02*
X103800000Y-111250000D01*
%TO.C,C11*%
X121190000Y-117615835D02*
X121190000Y-117384165D01*
X121910000Y-117615835D02*
X121910000Y-117384165D01*
%TO.C,C8*%
X148033767Y-104860000D02*
X147741233Y-104860000D01*
X148033767Y-103840000D02*
X147741233Y-103840000D01*
%TO.C,R11*%
X127740000Y-113083335D02*
X127740000Y-112851665D01*
X128460000Y-113083335D02*
X128460000Y-112851665D01*
%TO.C,C6*%
X106598335Y-102710000D02*
X106366665Y-102710000D01*
X106598335Y-101990000D02*
X106366665Y-101990000D01*
D11*
%TO.C,Q1*%
X114355000Y-130470000D02*
X114355000Y-131770000D01*
X111275000Y-130470000D02*
X111275000Y-131770000D01*
X114355000Y-131770000D02*
X113440000Y-131770000D01*
X111275000Y-131770000D02*
X112190000Y-131770000D01*
D13*
X113830000Y-129020000D02*
G75*
G03*
X113830000Y-129020000I-100000J0D01*
G01*
D12*
%TO.C,F1*%
X106302064Y-124410000D02*
X105097936Y-124410000D01*
X106302064Y-122590000D02*
X105097936Y-122590000D01*
%TO.C,U5*%
X155750000Y-109600000D02*
X149250000Y-109600000D01*
X155750000Y-109600000D02*
X155750000Y-127600000D01*
X135750000Y-109600000D02*
X136000000Y-109600000D01*
X155750000Y-127600000D02*
X149250000Y-127600000D01*
X149750000Y-127600000D02*
X149750000Y-109650000D01*
X136000000Y-127600000D02*
X135750000Y-127600000D01*
X135750000Y-127600000D02*
X135750000Y-109600000D01*
%TO.C,C9*%
X148315835Y-106810000D02*
X148084165Y-106810000D01*
X148315835Y-106090000D02*
X148084165Y-106090000D01*
%TO.C,U2*%
X121525000Y-134190000D02*
X119725000Y-134190000D01*
X121525000Y-134190000D02*
X122325000Y-134190000D01*
X121525000Y-137310000D02*
X120725000Y-137310000D01*
X121525000Y-137310000D02*
X122325000Y-137310000D01*
%TO.C,R6*%
X139416665Y-129740000D02*
X139648335Y-129740000D01*
X139416665Y-130460000D02*
X139648335Y-130460000D01*
%TO.C,R10*%
X108870000Y-118065121D02*
X108870000Y-117729879D01*
X109630000Y-118065121D02*
X109630000Y-117729879D01*
%TO.C,C10*%
X121090000Y-108515835D02*
X121090000Y-108284165D01*
X121810000Y-108515835D02*
X121810000Y-108284165D01*
%TO.C,R8*%
X118910000Y-102251665D02*
X118910000Y-102483335D01*
X118190000Y-102251665D02*
X118190000Y-102483335D01*
%TO.C,R9*%
X118190000Y-105733335D02*
X118190000Y-105501665D01*
X118910000Y-105733335D02*
X118910000Y-105501665D01*
D14*
%TO.C,SW1*%
X122500000Y-117100000D02*
X122500000Y-118100000D01*
X123600000Y-115000000D02*
X126600000Y-115000000D01*
X123600000Y-120200000D02*
X126600000Y-120200000D01*
X127700000Y-117100000D02*
X127700000Y-118100000D01*
D13*
X121900000Y-115000000D02*
G75*
G03*
X121900000Y-114800000I0J100000D01*
G01*
X121900000Y-114800000D02*
G75*
G03*
X121900000Y-115000000I0J-100000D01*
G01*
D12*
%TO.C,C4*%
X110410000Y-131751665D02*
X110410000Y-131983335D01*
X109690000Y-131751665D02*
X109690000Y-131983335D01*
%TO.C,R1*%
X122155000Y-127379879D02*
X122155000Y-127715121D01*
X121395000Y-127379879D02*
X121395000Y-127715121D01*
%TO.C,R5*%
X105716665Y-131990000D02*
X105948335Y-131990000D01*
X105716665Y-132710000D02*
X105948335Y-132710000D01*
%TO.C,C1*%
X117222500Y-136551665D02*
X117222500Y-136783335D01*
X116502500Y-136551665D02*
X116502500Y-136783335D01*
%TO.C,D4*%
X133760000Y-137750000D02*
X133760000Y-136450000D01*
X130640000Y-136450000D02*
X130640000Y-138450000D01*
%TO.C,R2*%
X139290000Y-106783335D02*
X139290000Y-106551665D01*
X140010000Y-106783335D02*
X140010000Y-106551665D01*
%TO.C,R7*%
X143601665Y-130240000D02*
X143833335Y-130240000D01*
X143601665Y-130960000D02*
X143833335Y-130960000D01*
%TO.C,D1*%
X117475000Y-131010000D02*
X119475000Y-131010000D01*
X117475000Y-131010000D02*
X117475000Y-127000000D01*
X119475000Y-131010000D02*
X119475000Y-127000000D01*
%TO.C,U1*%
X107912500Y-130110000D02*
X109712500Y-130110000D01*
X107912500Y-130110000D02*
X107112500Y-130110000D01*
X107912500Y-126990000D02*
X108712500Y-126990000D01*
X107912500Y-126990000D02*
X107112500Y-126990000D01*
%TO.C,D2*%
X101190000Y-131210000D02*
X101190000Y-130479000D01*
X103310000Y-131210000D02*
X103310000Y-130479000D01*
D14*
%TO.C,U3*%
X116650000Y-104867500D02*
X115250000Y-104867500D01*
X116650000Y-103367500D02*
X115250000Y-103367500D01*
X117000000Y-104917500D02*
G75*
G03*
X117000000Y-104917500I-50000J0D01*
G01*
D12*
%TO.C,R3*%
X147716665Y-130240000D02*
X147948335Y-130240000D01*
X147716665Y-130960000D02*
X147948335Y-130960000D01*
%TO.C,C7*%
X113360000Y-104001665D02*
X113360000Y-104233335D01*
X112640000Y-104001665D02*
X112640000Y-104233335D01*
%TO.C,C3*%
X102510000Y-126351665D02*
X102510000Y-126583335D01*
X101790000Y-126351665D02*
X101790000Y-126583335D01*
%TO.C,C2*%
X125210000Y-136201665D02*
X125210000Y-136433335D01*
X124490000Y-136201665D02*
X124490000Y-136433335D01*
%TO.C,R4*%
X104580000Y-126329879D02*
X104580000Y-126665121D01*
X103820000Y-126329879D02*
X103820000Y-126665121D01*
%TO.C,C5*%
X118916665Y-131940000D02*
X119148335Y-131940000D01*
X118916665Y-132660000D02*
X119148335Y-132660000D01*
%TO.C,R12*%
X127740000Y-121933335D02*
X127740000Y-121701665D01*
X128460000Y-121933335D02*
X128460000Y-121701665D01*
D14*
%TO.C,SW2*%
X122500000Y-108000000D02*
X122500000Y-109000000D01*
X123600000Y-105900000D02*
X126600000Y-105900000D01*
X123600000Y-111100000D02*
X126600000Y-111100000D01*
X127700000Y-108000000D02*
X127700000Y-109000000D01*
D13*
X121900000Y-105900000D02*
G75*
G03*
X121900000Y-105700000I0J100000D01*
G01*
X121900000Y-105700000D02*
G75*
G03*
X121900000Y-105900000I0J-100000D01*
G01*
%TO.C,J1*%
X136580000Y-136050000D02*
X136580000Y-137300000D01*
X136580000Y-140020000D02*
X136580000Y-141300000D01*
X136580000Y-141300000D02*
X146160000Y-141300000D01*
X146160000Y-136050000D02*
X146160000Y-137300000D01*
X146160000Y-141300000D02*
X146160000Y-140020000D01*
D12*
%TO.C,BT1*%
X103835000Y-134160000D02*
X101215000Y-134160000D01*
X103835000Y-134160000D02*
X103835000Y-139080000D01*
X101215000Y-134160000D02*
X101215000Y-139080000D01*
X103835000Y-134280000D02*
X103605000Y-134280000D01*
X101445000Y-134280000D02*
X101215000Y-134280000D01*
X103835000Y-134400000D02*
X103605000Y-134400000D01*
X101445000Y-134400000D02*
X101215000Y-134400000D01*
X103835000Y-139080000D02*
X101215000Y-139080000D01*
%TO.C,U4*%
X105100000Y-120400000D02*
X105100000Y-116800000D01*
X100650000Y-118600000D02*
G75*
G03*
X105088478Y-120438478I2600000J0D01*
G01*
X105088478Y-116761522D02*
G75*
G03*
X100650000Y-118600000I-1838478J-1838478D01*
G01*
%TD*%
M02*
